<svg t="1682004184823" class="icon" viewBox="0 0 1024 1024" version="1.1" xmlns="http://www.w3.org/2000/svg" p-id="12881" width="24" height="24"><path d="M382.03493692 936.3124808c-132.22116944 0-141.23448108-34.32393542-144.19853806-45.60224447-2.60619183-9.92353386-9.51343373-36.25218396 51.05357537-77.07437254l5.4002073-3.64200026-3.3119197-5.60470168c-10.30473802-17.4286995-18.32891928-35.73539113-24.53043331-55.97477682l-2.87959192-9.39451581-7.86969908 5.89477249c-14.58467183 10.95378538-29.35049899 16.49624962-43.87737893 16.49624962-11.11938136 0-21.35632506-3.28413512-29.61278524-9.51343372-5.16126007-3.8931727-18.88016497-14.22569529-23.14231664-63.43659857-6.26486284-72.10649301 13.37771049-179.78389255 87.28353168-265.75821571l1.62150699-1.88935015 0.04556667-2.48616253c5.1723739-273.27004966 150.18333252-330.63405454 270.91947579-330.63405455 70.86174468 0 128.6914188 22.57884574 171.88085199 67.11638584 73.82024474 76.1019129 84.2561259 197.61824664 83.89159246 263.27872149l-0.01111384 2.64509021 1.75265012 1.97492661c75.14612401 84.63733007 94.23634026 213.01533903 88.61496785 274.06135395-2.76067399 30.10068213-11.27830905 49.66434731-26.03969068 59.79237552a41.7324108 41.7324108 0 0 1-23.6768916 7.32401032c-14.14567575 0-30.0328878-7.22065174-47.42824582-21.45857225l-8.08641868-6.61717108-2.92404721 10.03133796c-6.08926442 20.89510134-13.99230498 39.55410121-23.49017936 55.4635409l-3.33970423 5.59914475 5.40576421 3.65867101c36.51447022 24.64490571 57.91525058 56.25484521 54.51330891 80.54077439-3.65978239 26.11748745-31.17205482 32.13895754-59.02552164 36.05880342-23.52352083 3.31191969-53.98984778 5.12680721-85.84318003 5.12680721-37.46470221 0-76.1652617-2.51505848-111.90509836-7.27177534l-0.50679039-0.06779432-0.52346113 0.01111382c-5.43466015 0.09113337-11.26719523 0.12447484-16.78076354 0.12447484-7.90415194 0-15.15369964-0.07335124-19.60256356-0.12447484l-0.80797504-0.01111382-0.78574739 0.17004151c-32.29232832 7.22732004-72.13538896 11.1927326-112.18294396 11.1927326z m-99.70545327-300.61116917c5.41132112 0 10.74817962 1.47369313 15.43154525 4.26215166a30.27183503 30.27183503 0 0 1 14.67024827 23.66577778c4.55666802 59.50341609 19.28359679 100.28003798 49.21979433 136.3277276a30.28961715 30.28961715 0 0 1-9.02998236 46.00011937 347.26589283 347.26589283 0 0 0-24.62823497 14.64024095l-16.16505767 10.52701452 19.1757927 2.12274047c15.61936888 1.73042247 32.7868935 2.60063492 51.02467942 2.60063492 37.56139248 0 74.03585294-3.7609182 102.69840618-10.58369502a32.36679094 32.36679094 0 0 1 7.29511438-0.82575716c0.3356375 0.02222765 11.72730756 0.1711529 23.07341093 0.1711529 6.18595469 0 12.79756885-0.0444553 18.72679419-0.15892769l0.69461404-0.01111383c1.36033211 0 2.71955284 0.09557889 4.06321421 0.27784562 33.86826862 4.65446968 70.71281942 7.11284765 106.53267561 7.11284763 17.21864822 0 33.60153683-0.53457496 48.69188768-1.59816794l21.59416089-1.53704192-18.48673558-11.25497003a162.54857359 162.54857359 0 0 0-25.89743373-12.76311599 30.36852531 30.36852531 0 0 1-18.77791779-23.21677927 30.32962691 30.32962691 0 0 1 10.33919089-28.03573356c35.73539113-30.14736019 45.961221-102.74952978 46.87700014-128.17907148a30.3185131 30.3185131 0 0 1 21.3218722-27.83123919 30.36296839 30.36296839 0 0 1 8.91106444-1.34366137c9.57678253 0 18.66900231 4.59778918 24.34260969 12.31411749a364.05221327 364.05221327 0 0 0 30.08512278 35.56423823l11.57949369 12.00626454 0.30674156-16.67740496c1.0191377-56.13592728-20.29162067-162.46966544-83.17475078-225.35279555a30.34629765 30.34629765 0 0 1-8.84215873-22.28877493c1.47369313-48.41848759-2.05494614-168.20995577-66.5940361-234.72952923-31.81443386-32.81023253-73.84247239-48.759682-128.46914231-48.759682-90.24758865 0-210.25577643 29.48719902-210.61475295 284.44500014a30.13624637 30.13624637 0 0 1-8.13643087 20.59391669c-86.56113308 92.6826276-82.80466043 206.65378591-81.17203962 228.54913147l1.18917921 15.97834541 10.79485768-11.83622304c8.07419345-8.85327255 16.59849681-20.76284683 25.32729454-35.41531298a30.43743101 30.43743101 0 0 1 26.02190856-14.76027025z" fill="#2C2C2C" p-id="12882"></path></svg>