<svg t="1682004101200" class="icon" viewBox="0 0 1024 1024" version="1.1" xmlns="http://www.w3.org/2000/svg" p-id="7217" width="26" height="26"><path d="M171.28334222 757.6576a30.14542222 30.14542222 0 0 1-30.11697777-30.11697778c0-4.37248 0.98304-8.77568 2.82965333-12.73400889 11.96032-25.63072 24.17436445-55.19132445 30.40028444-73.56529778l1.59744-4.73429333-3.9936-2.98325333c-72.62435555-54.25493333-114.28067555-132.82645333-114.28067555-215.57134222 0-157.03608889 148.12501333-284.79715555 330.1888-284.79715556 179.40593778 0 325.85614222 124.04963555 330.10574222 277.92156444h-60.2624c-4.37361778-120.66588445-123.74243555-217.69557333-269.85016889-217.69557333-148.85774222 0-269.96736 100.73884445-269.96736 224.57116445 0 70.12693333 38.45347555 135.00529778 105.50954667 177.99850666 11.53365333 7.39214222 16.41016889 18.08497778 15.36341333 33.64977778l-0.84081778 12.40974222 10.96021333-5.88913778c13.43943111-7.22488889 23.60661333-10.72924445 31.07498667-10.72924444 4.13013333 0 7.26129778 1.00693333 10.87715556 2.17315556 30.92593778 9.93507555 63.56992 14.97201778 97.02286222 14.97201778 21.94432 0 43.66222222-2.2016 64.89543111-6.55132445l13.44056889 58.72298667a382.30698667 382.30698667 0 0 1-78.0288 8.06001778c-36.12216889 0-71.3216-4.90040889-104.93496889-14.57493334l-2.70449778-0.77596444-2.47352888 1.33802666c-18.84842667 10.20814222-59.48643555 39.78581333-88.15274667 62.42759112a30.18069333 30.18069333 0 0 1-18.64135111 6.48533333h-0.01820445z" fill="#2C2C2C" p-id="7218"></path><path d="M855.52810667 890.83448889a29.90307555 29.90307555 0 0 1-20.95559112-8.51057778c-16.62976-16.14506667-35.7376-33.18784-47.55000888-42.43114666l-2.72839112-2.13105778-3.33824 0.92387555a306.41038222 306.41038222 0 0 1-81.64238222 11.07740445c-148.11363555 0-268.15146667-103.60376889-268.15146666-230.95068445s120.03783111-230.95751111 267.57688888-230.95751111 267.56551111 103.60376889 267.56551112 230.95751111c0 67.62382222-34.12195555 131.61358222-93.61521778 175.58300445l-3.60334222 2.66353778 0.98190222 4.37361777c3.04810667 13.55776 8.58112 33.14005333 14.10275556 49.88700445a29.93834667 29.93834667 0 0 1-1.7408 22.98538666 29.90876445 29.90876445 0 0 1-17.48081778 15.02549334 29.99751111 29.99751111 0 0 1-9.39121778 1.50869333h-0.02958222zM698.72753778 448.06826667c-114.33415111 0-207.35089778 76.59064889-207.35089778 170.73152s93.01105778 170.73152 207.35089778 170.73152c27.06204445 0 53.35495111-4.23139555 78.13347555-12.57016889a32.83285333 32.83285333 0 0 1 10.40384-1.69187556c3.94126222 0 7.34435555 0 12.82958222 2.14812445l7.03146667 2.75797333 2.09351111-7.26129778c2.17315555-7.55143111 6.53994667-13.03779555 14.17443556-17.79484444 52.55054222-32.69063111 82.69027555-82.38307555 82.69027556-136.31943111-0.01137778-94.14087111-93.02926222-170.73038222-207.35658667-170.73038222z m-414.60736-80.98588445c-21.88515555 0-39.68568889-16.60472889-39.68568889-37.01646222s17.80053333-37.00963555 39.68568889-37.00963555c21.87832889 0 39.68568889 16.60472889 39.68568889 37.00963555s-17.80736 37.01646222-39.68568889 37.01646222z m212.86001777 0c-21.87832889 0-39.68568889-16.60472889-39.68568888-37.01646222s17.80167111-37.00963555 39.68568888-37.00963555 39.68568889 16.60472889 39.6856889 37.00963555-17.80167111 37.01646222-39.6856889 37.01646222z" fill="#2C2C2C" p-id="7219"></path><path d="M614.68672 582.144c-17.5104 0-31.75537778-13.39733333-31.75537778-29.86097778 0-16.45795555 14.24497778-29.85528889 31.75537778-29.85528889 17.52291555 0 31.77927111 13.39733333 31.77927111 29.85528889 0 16.46364445-14.25635555 29.86211555-31.77813333 29.86211556z m156.84266667 0.16042667c-8.52764445-0.00568889-16.54670222-3.14254222-22.56554667-8.82915556-5.97674667-5.65134222-9.26151111-13.15612445-9.26151111-21.12170666 0.01137778-16.52167111 14.29845333-29.94403555 31.84412444-29.94403556 8.55153778 0.00568889 16.57059555 3.14254222 22.58261334 8.82915556 5.97788445 5.64565333 9.26151111 13.15043555 9.26151111 21.1091911-0.01137778 16.53532445-14.29731555 29.95768889-31.84412445 29.9576889h-0.01706666z" fill="#2C2C2C" p-id="7220"></path></svg>